<svg xmlns="http://www.w3.org/2000/svg" viewBox="0 0 952.46 263.35"><g id="Calque_2" data-name="Calque 2"><g id="Calque_1-2" data-name="Calque 1"><path d="M952.46,1.41,860.16,0c-8.71,8-34.56,32.78-42.64,41V.39h-64v166c-.21,8.3-.17,16.89,0,25.76v71.21h65.67c0-16.28-.5-14.83-1-29.87-.27-8.65-.54-17.18-.69-25.42V185.7c.38-15.62.14-24.41,4.64-41.41,5.61-21.17,21.42-40.17,34-49.79,26.63,33.33,16.31,85.73,10,129.87a382.39,382.39,0,0,1-7.67,39h65A147,147,0,0,0,928.36,241c7.73-55.32,22.75-135.59-26.41-191.54C913.8,38.77,938.82,15,952.46,1.41Z"/><rect x="655.36" y="0.19" width="69.77" height="262.97"/><path d="M254,.19c-39,0-73.53,17.64-97.53,45.4C132.43,17.83,97.92.19,58.9.19H15.39C13.14,8.82-.37,66.22,0,124.36.76,226,15,261.28,15.39,263.16h69.4c-.38-1.5-14.63-58.9-17.26-130.17-.75-19.88,1.13-41.64,4.5-61.15,28.14,6.76,52.15,30.39,52.15,61.15V263.16H188.7V133c0-30.76,24-54.39,52.14-61.15a303,303,0,0,1,4.5,61.15c-2.62,71.27-16.88,128.67-17.25,130.17h69.39c.38-1.88,14.63-37.14,15.38-138.8C313.24,66.22,299.73,8.82,297.48.19Z"/><rect x="338" y="0.19" width="69.4" height="262.97"/><path d="M531.56,7.7C480.55,7,470,.19,429.15.19V65.47c37.52,0,67.53,27.76,67.53,62.64V263.16h69.77v-135c0-34.88,30-62.64,67.52-62.64V.19C593.09.19,582.58,8.45,531.56,7.7Z"/></g></g></svg>