<svg xmlns="http://www.w3.org/2000/svg" viewBox="0 0 1452.13 262.97"><defs><style>.cls-1{fill:none;}</style></defs><g id="Calque_2" data-name="Calque 2"><g id="Calque_1-2" data-name="Calque 1"><path class="cls-1" d="M945,16.13C880.81,16.13,829,67.9,829,130.92A115.76,115.76,0,0,0,945,246.84c63,0,114.78-51.77,114.78-115.92C1059.74,67.9,1008,16.13,945,16.13Z"></path><rect x="655.36" width="69.77" height="262.97"></rect><path class="cls-1" d="M945,16.13C880.81,16.13,829,67.9,829,130.92A115.76,115.76,0,0,0,945,246.84c63,0,114.78-51.77,114.78-115.92C1059.74,67.9,1008,16.13,945,16.13Z"></path><path d="M944.58,0C871.81,0,812.91,58.9,812.91,131.29A131.61,131.61,0,0,0,944.58,263c72.4,0,131.3-58.9,131.3-131.68C1075.88,58.9,1017,0,944.58,0ZM945,246.84A115.76,115.76,0,0,1,829,130.92C829,67.9,880.81,16.13,945,16.13c63,0,114.78,51.77,114.78,114.79C1059.74,195.07,1008,246.84,945,246.84Z"></path><path d="M254,0c-39,0-73.53,17.63-97.53,45.39C132.43,17.63,97.92,0,58.9,0H15.39C13.14,8.63-.37,66,0,124.17.76,225.83,15,261.09,15.39,263h69.4c-.38-1.5-14.63-58.9-17.26-130.17-.75-19.89,1.13-41.64,4.5-61.15,28.14,6.75,52.15,30.38,52.15,61.15V263H188.7V132.8c0-30.77,24-54.4,52.14-61.15a303,303,0,0,1,4.5,61.15c-2.62,71.27-16.88,128.67-17.25,130.17h69.39c.38-1.88,14.63-37.14,15.38-138.8C313.24,66,299.73,8.63,297.48,0Z"></path><rect x="338" width="69.4" height="262.97"></rect><path d="M531.56,7.5C480.55,6.75,470,0,429.15,0V65.27c37.52,0,67.53,27.76,67.53,62.65V263h69.77v-135c0-34.89,30-62.65,67.52-62.65V0C593.09,0,582.58,8.25,531.56,7.5Z"></path><path d="M1242.81,54.77C1219.92,30.39,1174.91.38,1116.39,0c0,0-15.76,60.77-15.76,126,0,100.16,15.76,136.93,15.76,136.93h15.38c-9.75-39-15-62.28-15-128.3,0-20.63-.75-66.4,12-119.66,47.64,3,91.15,35.63,114,62.27V263h16.13V0h-16.13Z"></path><path d="M1417.24,246.46c-78.78,0-109.16-42.39-109.16-109.54l.17-61.89H1406V59.65h-97.7l.12-43.52H1406V0H1292V140.3c0,85.53,46.51,122.29,122.29,122.29h37.89V246.46Z"></path></g></g></svg>